<?xml version="1.0" encoding="UTF-8" standalone="no"?>
<svg xmlns:svg="http://www.w3.org/2000/svg" xmlns="http://www.w3.org/2000/svg" version="1.0" width="2230.8" height="987.6" viewBox="0 0 2230.8 987.6" xml:space="preserve">
<rect x="0" y="0" width="2230.8" height="987.6" style="fill:white" />
<g transform="translate(50,53.957139)">
<path d="M 142,407 C 142,368.9 111.1,338 73,338 C 34.9,338 4,368.9 4,407 C 4,445.1 34.9,476 73,476 C 111.1,476 142,445.1 142,407" style="fill:#00a0c6;stroke:#00a0c6;stroke-width:8" />
<path d="M 295.6,563 C 295.6,524.9 264.7,494 226.6,494 C 188.5,494 157.6,524.9 157.6,563 C 157.6,601.1 188.5,632 226.6,632 C 264.7,632 295.6,601.1 295.6,563" style="fill:#ffff00;stroke:#ffff00;stroke-width:8" />
<path d="M 575.2,407 C 575.2,368.9 544.3,338 506.2,338 C 468.1,338 437.2,368.9 437.2,407 C 437.2,445.1 468.1,476 506.2,476 C 544.3,476 575.2,445.1 575.2,407" style="fill:#f0037f;stroke:#f0037f;stroke-width:8" />
<path d="M 350.1,134.6 C 350.1,96.2 319,65.1 280.6,65.1 C 242.2,65.1 211.1,96.2 211.1,134.6 C 211.1,173 242.2,204.1 280.6,204.1 C 319,204.1 350.1,173 350.1,134.6" style="fill:#008837;stroke:#008837;stroke-width:8" />
<path d="M 304.6,365.4 L 314.1,367.8 C 312.1,375.6 308.5,381.5 303.4,385.6 C 298.3,389.7 291.9,391.7 284.5,391.7 C 276.8,391.7 270.5,390.1 265.7,387 C 260.9,383.9 257.2,379.3 254.7,373.3 C 252.2,367.3 250.9,360.9 250.9,354.1 C 250.9,346.6 252.3,340.1 255.2,334.6 C 258.1,329.1 262.1,324.8 267.3,321.9 C 272.5,319 278.3,317.6 284.6,317.6 C 291.8,317.6 297.8,319.4 302.6,323.1 C 307.5,326.8 310.9,331.9 312.8,338.5 L 303.4,340.7 C 301.7,335.5 299.3,331.7 296.2,329.3 C 293,326.9 289.1,325.7 284.3,325.7 C 278.8,325.7 274.2,327 270.5,329.7 C 266.8,332.3 264.2,335.9 262.7,340.3 C 261.2,344.7 260.5,349.3 260.5,354.1 C 260.5,360.2 261.4,365.5 263.2,370.1 C 265,374.6 267.7,378 271.5,380.3 C 275.2,382.6 279.3,383.7 283.6,383.7 C 288.9,383.7 293.4,382.2 297.1,379.1 C 300.8,376 303.3,371.4 304.6,365.4 z" />
<path d="M 293.6,149.4 L 303.1,151.8 C 301.1,159.6 297.5,165.5 292.4,169.6 C 287.3,173.7 280.9,175.7 273.5,175.7 C 265.8,175.7 259.5,174.1 254.7,171 C 249.9,167.9 246.2,163.3 243.7,157.3 C 241.2,151.3 239.9,144.9 239.9,138.1 C 239.9,130.6 241.3,124.1 244.2,118.6 C 247.1,113.1 251.1,108.8 256.3,105.9 C 261.5,103 267.3,101.6 273.6,101.6 C 280.8,101.6 286.8,103.4 291.6,107.1 C 296.5,110.8 299.9,115.9 301.8,122.5 L 292.4,124.7 C 290.7,119.5 288.3,115.7 285.2,113.3 C 282,110.9 278.1,109.7 273.3,109.7 C 267.8,109.7 263.2,111 259.5,113.7 C 255.8,116.3 253.2,119.9 251.7,124.3 C 250.2,128.7 249.5,133.3 249.5,138.1 C 249.5,144.2 250.4,149.5 252.2,154.1 C 254,158.6 256.7,162 260.5,164.3 C 264.2,166.6 268.3,167.7 272.6,167.7 C 277.9,167.7 282.4,166.2 286.1,163.1 C 289.8,160 292.3,155.4 293.6,149.4 z" />
<path d="M 313.5,174.5 L 313.5,102.9 L 322.3,102.9 L 322.3,174.5 L 313.5,174.5 z" />
<rect width="8" height="111" x="277.89999" y="191" />
<path d="M 463.3,446.5 L 463.3,374.9 L 490.1,374.9 C 495.6,374.9 499.9,375.6 503.2,377.1 C 506.5,378.5 509.1,380.8 511,383.8 C 512.9,386.8 513.8,390 513.8,393.2 C 513.8,396.3 513,399.1 511.3,401.8 C 509.6,404.5 507.1,406.7 503.7,408.3 C 508.1,409.6 511.4,411.7 513.7,414.8 C 516,417.9 517.2,421.5 517.2,425.6 C 517.2,429 516.5,432.1 515.1,435 C 513.7,437.9 511.9,440.1 509.9,441.7 C 507.9,443.3 505.2,444.4 502.1,445.2 C 499,446 495.1,446.4 490.6,446.4 L 463.3,446.4 L 463.3,446.5 z M 472.8,404.9 L 488.2,404.9 C 492.4,404.9 495.4,404.6 497.2,404.1 C 499.6,403.4 501.4,402.2 502.6,400.6 C 503.8,399 504.4,396.9 504.4,394.4 C 504.4,392 503.8,390 502.7,388.2 C 501.6,386.4 499.9,385.2 497.8,384.5 C 495.7,383.8 492.1,383.5 487,383.5 L 472.8,383.5 L 472.8,404.9 z M 472.8,438 L 490.6,438 C 493.7,438 495.8,437.9 497,437.7 C 499.2,437.3 501,436.7 502.5,435.7 C 504,434.7 505.2,433.5 506.1,431.7 C 507,429.9 507.5,427.9 507.5,425.7 C 507.5,423 506.8,420.7 505.4,418.7 C 504,416.7 502.1,415.3 499.7,414.5 C 497.3,413.7 493.8,413.3 489.3,413.3 L 472.8,413.3 L 472.8,438 z" />
<path d="M 529.1,446.5 L 529.1,394.6 L 537,394.6 L 537,402.6 C 539,398.9 540.9,396.5 542.6,395.3 C 544.3,394.1 546.2,393.5 548.2,393.5 C 551.2,393.5 554.2,394.4 557.2,396.3 L 554.1,404.4 C 552,403.2 549.8,402.6 547.7,402.6 C 545.8,402.6 544.1,403.2 542.6,404.3 C 541.1,405.5 540,407.1 539.3,409.1 C 538.3,412.2 537.8,415.6 537.8,419.3 L 537.8,446.4 L 529.1,446.4 L 529.1,446.5 z" />
<rect width="7.8000002" height="115.9" x="383" y="321.79999" transform="matrix(-0.2573,0.9663,-0.9663,-0.2573,853.4046,103.631)" />
<path d="M 202.4,599 L 202.4,527.4 L 250.8,527.4 L 250.8,535.9 L 211.9,535.9 L 211.9,558 L 245.5,558 L 245.5,566.5 L 211.9,566.5 L 211.9,599 L 202.4,599 z" />
<polygon points="253.9,512.5 224.9,505 263.4,404 271.4,406 253.9,512.5" />
<path d="M 44.9,446.5 L 44.9,374.9 L 54.4,374.9 L 54.4,404.3 L 91.7,404.3 L 91.7,374.9 L 101.2,374.9 L 101.2,446.5 L 91.7,446.5 L 91.7,412.7 L 54.4,412.7 L 54.4,446.5 L 44.9,446.5 z" />
<polygon points="125.9,408.5 118.4,380 126.4,378.5 133.9,406 125.9,408.5" />
<polygon points="151.4,399.5 144.9,375 152.9,374 158.9,396.5 151.4,399.5" />
<polygon points="176.9,390 171.9,370.5 179.9,369.5 184.4,387 176.9,390" />
<polygon points="202.4,380.5 198.9,366 206.4,365 209.9,377.5 202.4,380.5" />
<polygon points="227.9,371 225.4,361.5 233.4,360.5 235.4,368 227.9,371" />
<path d="M 1384,408.2 C 1384,370.1 1353.1,339.2 1315,339.2 C 1276.9,339.2 1246,370.1 1246,408.2 C 1246,446.3 1276.9,477.2 1315,477.2 C 1353.1,477.2 1384,446.3 1384,408.2" style="fill:#00a0c6;stroke:#00a0c6;stroke-width:8" />
<path d="M 1230.4,560.6 C 1230.4,522.5 1199.5,491.6 1161.4,491.6 C 1123.3,491.6 1092.4,522.5 1092.4,560.6 C 1092.4,598.7 1123.3,629.6 1161.4,629.6 C 1199.5,629.6 1230.4,598.7 1230.4,560.6" style="fill:#ffff00;stroke:#ffff00;stroke-width:8" />
<path d="M 983.2,408.2 C 983.2,370.1 952.3,339.2 914.2,339.2 C 876.1,339.2 845.2,370.1 845.2,408.2 C 845.2,446.3 876.1,477.2 914.2,477.2 C 952.3,477.2 983.2,446.3 983.2,408.2" style="fill:#f0037f;stroke:#f0037f;stroke-width:8" />
<path d="M 1175.2,137 C 1175.2,98.9 1144.3,68 1106.2,68 C 1068.1,68 1037.2,98.9 1037.2,137 C 1037.2,175.1 1068.1,206 1106.2,206 C 1144.3,206 1175.2,175.1 1175.2,137" style="fill:#008837;stroke:#008837;stroke-width:8" />
<path d="M 1129.1,365.9 L 1138.6,368.3 C 1136.6,376.1 1133,382 1127.9,386.1 C 1122.8,390.2 1116.4,392.2 1109,392.2 C 1101.3,392.2 1095,390.6 1090.2,387.5 C 1085.4,384.4 1081.7,379.8 1079.2,373.8 C 1076.7,367.8 1075.4,361.4 1075.4,354.6 C 1075.4,347.1 1076.8,340.6 1079.7,335.1 C 1082.6,329.6 1086.6,325.3 1091.8,322.4 C 1097,319.5 1102.8,318.1 1109.1,318.1 C 1116.3,318.1 1122.3,319.9 1127.1,323.6 C 1132,327.3 1135.4,332.4 1137.3,339 L 1127.9,341.2 C 1126.2,336 1123.8,332.2 1120.7,329.8 C 1117.5,327.4 1113.6,326.2 1108.8,326.2 C 1103.3,326.2 1098.7,327.5 1095,330.2 C 1091.3,332.8 1088.7,336.4 1087.2,340.8 C 1085.7,345.2 1085,349.8 1085,354.6 C 1085,360.7 1085.9,366 1087.7,370.6 C 1089.5,375.1 1092.2,378.5 1096,380.8 C 1099.7,383.1 1103.8,384.2 1108.1,384.2 C 1113.4,384.2 1117.9,382.7 1121.6,379.6 C 1125.3,376.5 1127.8,371.9 1129.1,365.9 z" />
<path d="M 1118.1,149.9 L 1127.6,152.3 C 1125.6,160.1 1122,166 1116.9,170.1 C 1111.8,174.2 1105.4,176.2 1098,176.2 C 1090.3,176.2 1084,174.6 1079.2,171.5 C 1074.4,168.4 1070.7,163.8 1068.2,157.8 C 1065.7,151.8 1064.4,145.4 1064.4,138.6 C 1064.4,131.1 1065.8,124.6 1068.7,119.1 C 1071.6,113.6 1075.6,109.3 1080.8,106.4 C 1086,103.5 1091.8,102.1 1098.1,102.1 C 1105.3,102.1 1111.3,103.9 1116.1,107.6 C 1121,111.3 1124.4,116.4 1126.3,123 L 1116.9,125.2 C 1115.2,120 1112.8,116.2 1109.7,113.8 C 1106.5,111.4 1102.6,110.2 1097.8,110.2 C 1092.3,110.2 1087.7,111.5 1084,114.2 C 1080.3,116.8 1077.7,120.4 1076.2,124.8 C 1074.7,129.2 1074,133.8 1074,138.6 C 1074,144.7 1074.9,150 1076.7,154.6 C 1078.5,159.1 1081.2,162.5 1085,164.8 C 1088.7,167.1 1092.8,168.2 1097.1,168.2 C 1102.4,168.2 1106.9,166.7 1110.6,163.6 C 1114.3,160.5 1116.8,155.9 1118.1,149.9 z" />
<path d="M 1138,175 L 1138,103.4 L 1146.8,103.4 L 1146.8,175 L 1138,175 z" />
<rect width="8" height="111" x="1102.4" y="191.5" />
<path d="M 870.8,447 L 870.8,375.4 L 897.6,375.4 C 903.1,375.4 907.4,376.1 910.7,377.6 C 914,379 916.6,381.3 918.5,384.3 C 920.4,387.3 921.3,390.5 921.3,393.7 C 921.3,396.8 920.5,399.6 918.8,402.3 C 917.1,405 914.6,407.2 911.2,408.8 C 915.6,410.1 918.9,412.2 921.2,415.3 C 923.5,418.4 924.7,422 924.7,426.1 C 924.7,429.5 924,432.6 922.6,435.5 C 921.2,438.4 919.4,440.6 917.4,442.2 C 915.4,443.8 912.7,444.9 909.6,445.7 C 906.5,446.5 902.6,446.9 898.1,446.9 L 870.8,446.9 L 870.8,447 z M 880.3,405.4 L 895.7,405.4 C 899.9,405.4 902.9,405.1 904.7,404.6 C 907.1,403.9 908.9,402.7 910.1,401.1 C 911.3,399.5 911.9,397.4 911.9,394.9 C 911.9,392.5 911.3,390.5 910.2,388.7 C 909.1,386.9 907.4,385.7 905.3,385 C 903.2,384.3 899.6,384 894.5,384 L 880.3,384 L 880.3,405.4 L 880.3,405.4 z M 880.3,438.5 L 898.1,438.5 C 901.2,438.5 903.3,438.4 904.5,438.2 C 906.7,437.8 908.5,437.2 910,436.2 C 911.5,435.2 912.7,434 913.6,432.2 C 914.5,430.4 915,428.4 915,426.2 C 915,423.5 914.3,421.2 912.9,419.2 C 911.5,417.2 909.6,415.8 907.2,415 C 904.8,414.2 901.3,413.8 896.8,413.8 L 880.3,413.8 L 880.3,438.5 L 880.3,438.5 z" />
<path d="M 936.6,447 L 936.6,395.1 L 944.5,395.1 L 944.5,403.1 C 946.5,399.4 948.4,397 950.1,395.8 C 951.8,394.6 953.7,394 955.7,394 C 958.7,394 961.7,394.9 964.7,396.8 L 961.6,404.9 C 959.5,403.7 957.3,403.1 955.2,403.1 C 953.3,403.1 951.6,403.7 950.1,404.8 C 948.6,406 947.5,407.6 946.8,409.6 C 945.8,412.7 945.3,416.1 945.3,419.8 L 945.3,447 L 936.6,447 z" />
<rect width="7.8000002" height="84.900002" x="1014.5" y="333.29999" transform="matrix(-0.2579,-0.9662,0.9662,-0.2579,917.9276,1456.6267)" />
<path d="M 1139.4,599.5 L 1139.4,527.9 L 1187.8,527.9 L 1187.8,536.4 L 1148.9,536.4 L 1148.9,558.5 L 1182.5,558.5 L 1182.5,567 L 1148.9,567 L 1148.9,599.5 L 1139.4,599.5 z" />
<polygon points="1163.4,505.5 1134.4,513.5 1117.4,407.5 1124.9,405 1163.4,505.5" />
<path d="M 1287.4,447 L 1287.4,375.4 L 1296.9,375.4 L 1296.9,404.8 L 1334.2,404.8 L 1334.2,375.4 L 1343.7,375.4 L 1343.7,447 L 1334.2,447 L 1334.2,413.2 L 1296.9,413.2 L 1296.9,447 L 1287.4,447 z" />
<polygon points="1269.4,380 1261.9,409 1254.4,406.5 1261.4,379 1269.4,380" />
<polygon points="1243.4,376 1236.9,400 1229.4,397 1235.4,374.5 1243.4,376" />
<polygon points="1216.9,371.5 1211.9,390.5 1204.4,387.5 1208.9,370 1216.9,371.5" />
<polygon points="1190.9,367 1186.9,381 1179.4,378.5 1182.9,366 1190.9,367" />
<polygon points="1164.4,362.5 1161.9,372 1154.4,369 1156.4,361.5 1164.4,362.5" />
<line x1="711.40002" y1="0" x2="711.40002" y2="697.5" style="fill:none;stroke:#000000;stroke-width:8;stroke-dasharray:25" />
<path d="M 2126.8,407 C 2126.8,368.9 2095.9,338 2057.8,338 C 2019.7,338 1988.8,368.9 1988.8,407 C 1988.8,445.1 2019.7,476 2057.8,476 C 2095.9,476 2126.8,445.1 2126.8,407" style="fill:#ffff00;stroke:#ffff00;stroke-width:8" />
<path d="M 1973.2,563 C 1973.2,524.9 1942.3,494 1904.2,494 C 1866.1,494 1835.2,524.9 1835.2,563 C 1835.2,601.1 1866.1,632 1904.2,632 C 1942.3,632 1973.2,601.1 1973.2,563" style="fill:#00a0c6;stroke:#00a0c6;stroke-width:8" />
<path d="M 1726,407 C 1726,368.9 1695.1,338 1657,338 C 1618.9,338 1588,368.9 1588,407 C 1588,445.1 1618.9,476 1657,476 C 1695.1,476 1726,445.1 1726,407" style="fill:#f0037f;stroke:#f0037f;stroke-width:8" />
<path d="M 1919.7,134.6 C 1919.7,96.2 1888.6,65.1 1850.2,65.1 C 1811.8,65.1 1780.7,96.2 1780.7,134.6 C 1780.7,173 1811.8,204.1 1850.2,204.1 C 1888.6,204.1 1919.7,173 1919.7,134.6" style="fill:#008837;stroke:#008837;stroke-width:8" />
<path d="M 1871.6,365.4 L 1881.1,367.8 C 1879.1,375.6 1875.5,381.5 1870.4,385.6 C 1865.3,389.7 1858.9,391.7 1851.5,391.7 C 1843.8,391.7 1837.5,390.1 1832.7,387 C 1827.9,383.9 1824.2,379.3 1821.7,373.3 C 1819.2,367.3 1817.9,360.9 1817.9,354.1 C 1817.9,346.6 1819.3,340.1 1822.2,334.6 C 1825.1,329.1 1829.1,324.8 1834.3,321.9 C 1839.5,319 1845.3,317.6 1851.6,317.6 C 1858.8,317.6 1864.8,319.4 1869.6,323.1 C 1874.5,326.8 1877.9,331.9 1879.8,338.5 L 1870.4,340.7 C 1868.7,335.5 1866.3,331.7 1863.2,329.3 C 1860,326.9 1856.1,325.7 1851.3,325.7 C 1845.8,325.7 1841.2,327 1837.5,329.7 C 1833.8,332.3 1831.2,335.9 1829.7,340.3 C 1828.2,344.7 1827.5,349.3 1827.5,354.1 C 1827.5,360.2 1828.4,365.5 1830.2,370.1 C 1832,374.6 1834.7,378 1838.5,380.3 C 1842.2,382.6 1846.3,383.7 1850.6,383.7 C 1855.9,383.7 1860.4,382.2 1864.1,379.1 C 1867.8,376 1870.3,371.4 1871.6,365.4 z" />
<path d="M 1860.6,149.4 L 1870.1,151.8 C 1868.1,159.6 1864.5,165.5 1859.4,169.6 C 1854.3,173.7 1847.9,175.7 1840.5,175.7 C 1832.8,175.7 1826.5,174.1 1821.7,171 C 1816.9,167.9 1813.2,163.3 1810.7,157.3 C 1808.2,151.3 1806.9,144.9 1806.9,138.1 C 1806.9,130.6 1808.3,124.1 1811.2,118.6 C 1814.1,113.1 1818.1,108.8 1823.3,105.9 C 1828.5,103 1834.3,101.6 1840.6,101.6 C 1847.8,101.6 1853.8,103.4 1858.6,107.1 C 1863.5,110.8 1866.9,115.9 1868.8,122.5 L 1859.4,124.7 C 1857.7,119.5 1855.3,115.7 1852.2,113.3 C 1849,110.9 1845.1,109.7 1840.3,109.7 C 1834.8,109.7 1830.2,111 1826.5,113.7 C 1822.8,116.3 1820.2,119.9 1818.7,124.3 C 1817.2,128.7 1816.5,133.3 1816.5,138.1 C 1816.5,144.2 1817.4,149.5 1819.2,154.1 C 1821,158.6 1823.7,162 1827.5,164.3 C 1831.2,166.6 1835.3,167.7 1839.6,167.7 C 1844.9,167.7 1849.4,166.2 1853.1,163.1 C 1856.8,160 1859.3,155.4 1860.6,149.4 z" />
<path d="M 1880.5,174.5 L 1880.5,102.9 L 1889.3,102.9 L 1889.3,174.5 L 1880.5,174.5 z" />
<rect width="8" height="111" x="1844.9" y="191" />
<path d="M 1613.3,446.5 L 1613.3,374.9 L 1640.1,374.9 C 1645.6,374.9 1649.9,375.6 1653.2,377.1 C 1656.5,378.5 1659.1,380.8 1661,383.8 C 1662.9,386.8 1663.8,390 1663.8,393.2 C 1663.8,396.3 1663,399.1 1661.3,401.8 C 1659.6,404.5 1657.1,406.7 1653.7,408.3 C 1658.1,409.6 1661.4,411.7 1663.7,414.8 C 1666,417.9 1667.2,421.5 1667.2,425.6 C 1667.2,429 1666.5,432.1 1665.1,435 C 1663.7,437.9 1661.9,440.1 1659.9,441.7 C 1657.9,443.3 1655.2,444.4 1652.1,445.2 C 1649,446 1645.1,446.4 1640.6,446.4 L 1613.3,446.4 L 1613.3,446.5 z M 1622.8,404.9 L 1638.2,404.9 C 1642.4,404.9 1645.4,404.6 1647.2,404.1 C 1649.6,403.4 1651.4,402.2 1652.6,400.6 C 1653.8,399 1654.4,396.9 1654.4,394.4 C 1654.4,392 1653.8,390 1652.7,388.2 C 1651.6,386.4 1649.9,385.2 1647.8,384.5 C 1645.7,383.8 1642.1,383.5 1637,383.5 L 1622.8,383.5 L 1622.8,404.9 z M 1622.8,438 L 1640.6,438 C 1643.7,438 1645.8,437.9 1647,437.7 C 1649.2,437.3 1651,436.7 1652.5,435.7 C 1654,434.7 1655.2,433.5 1656.1,431.7 C 1657,429.9 1657.5,427.9 1657.5,425.7 C 1657.5,423 1656.8,420.7 1655.4,418.7 C 1654,416.7 1652.1,415.3 1649.7,414.5 C 1647.3,413.7 1643.8,413.3 1639.3,413.3 L 1622.8,413.3 L 1622.8,438 z" />
<path d="M 1679.1,446.5 L 1679.1,394.6 L 1687,394.6 L 1687,402.6 C 1689,398.9 1690.9,396.5 1692.6,395.3 C 1694.3,394.1 1696.2,393.5 1698.2,393.5 C 1701.2,393.5 1704.2,394.4 1707.2,396.3 L 1704.1,404.4 C 1702,403.2 1699.8,402.6 1697.7,402.6 C 1695.8,402.6 1694.1,403.2 1692.6,404.3 C 1691.1,405.5 1690,407.1 1689.3,409.1 C 1688.3,412.2 1687.8,415.6 1687.8,419.3 L 1687.8,446.4 L 1679.1,446.4 L 1679.1,446.5 z" />
<rect width="7.8000002" height="84.900002" x="1757" y="332.79999" transform="matrix(-0.2579,-0.9662,0.9662,-0.2579,1852.3575,2173.4165)" />
<path d="M 1876.9,599 L 1876.9,527.4 L 1886.4,527.4 L 1886.4,556.8 L 1923.7,556.8 L 1923.7,527.4 L 1933.2,527.4 L 1933.2,599 L 1923.7,599 L 1923.7,565.2 L 1886.4,565.2 L 1886.4,599 L 1876.9,599 z" />
<polygon points="1905.4,504 1876.4,511.5 1859.4,406.5 1867.4,404.5 1905.4,504" />
<path d="M 2034.4,446.5 L 2034.4,374.9 L 2082.8,374.9 L 2082.8,383.4 L 2043.9,383.4 L 2043.9,405.5 L 2077.5,405.5 L 2077.5,414 L 2043.9,414 L 2043.9,446.5 L 2034.4,446.5 z" />
<polygon points="2016.4,381 2008.4,410 2000.9,407 2008.4,379.5 2016.4,381" />
<polygon points="1988.9,376 1982.4,400 1974.9,397.5 1980.9,375 1988.9,376" />
<polygon points="1961.4,371.5 1956.4,390.5 1948.9,388 1953.9,370 1961.4,371.5" />
<polygon points="1934.4,367 1930.4,381 1922.9,378 1926.4,365.5 1934.4,367" />
<polygon points="1906.9,362 1904.4,371.5 1896.9,368.5 1898.9,361 1906.9,362" />
<path d="M 1730.6,654.8 L 1672.9,680.7 C 1680,680.6 1686.8,683.6 1691.5,688.9 C 1696.2,694.2 1698.2,701.4 1697.1,708.4 L 1730.6,654.8 z" />
<path d="M 1691.4,689 C 1398.9,944 433.9,946.5 328.9,676.5" style="fill:none;stroke:#000000;stroke-width:8" />
<path d="M 1089.5,843.8 C 1089.5,862.9 1050.7,878.4 1003,878.4 C 955.2,878.4 916.5,862.9 916.5,843.8 C 916.5,824.7 955.3,809.2 1003,809.2 C 1050.7,809.2 1089.5,824.7 1089.5,843.8" style="fill:#ffffff;stroke:#000000;stroke-width:8" />
<path d="M 1482.8,426.6 L 1473.3,448.4 L 1466.6,448.4 L 1476.1,426.6 L 1462.3,426.6 L 1462.3,418.3 L 1479.7,418.3 L 1485.6,404.9 L 1462.3,404.9 L 1462.3,396.6 L 1489.2,396.6 L 1498.7,374.8 L 1505.4,374.8 L 1495.9,396.6 L 1509.7,396.6 L 1509.7,404.9 L 1492.3,404.9 L 1486.4,418.3 L 1509.7,418.3 L 1509.7,426.6 L 1482.8,426.6 z" />
</g>
</svg>

